PathFileType	4	(X/Y/Z)	1H_rest_slow_left.trc
DataRate	CameraRate	NumFrames	NumMarkers	Units	OrigDataRate	OrigDataStartFrame	OrigNumFrames
250.00	250.00	10	18	mm	250.00	11904	13604
Frame#	Time	c7	r_should	l_should	clavicle	r_upa	r_elb_l	r_elb_m	r_low	r_wri_l	r_wri_m	r_met	l_upa	l_elb_l	l_elb_m	l_low	l_wri_l	l_wri_m	l_met
	X1	Y1	Z1	X2	Y2	Z2	X3	Y3	Z3	X4	Y4	Z4	X5	Y5	Z5	X6	Y6	Z6	X7	Y7	Z7	X8	Y8	Z8	X9	Y9	Z9	X10	Y10	Z10	X11	Y11	Z11	X12	Y12	Z12	X13	Y13	Z13	X14	Y14	Z14	X15	Y15	Z15	X16	Y16	Z16	X17	Y17	Z17	X18	Y18	Z18
11904	47.61200	618.93726	1417.56079	251.21751	675.86981	1361.79480	406.37601	660.51459	1373.63098	87.17070	758.37537	1287.72815	239.51558	670.49023	1157.76514	481.76770	662.55286	1069.74963	505.17517	618.17780	1033.37732	434.04907	722.54114	897.26544	496.57147	753.24335	834.36169	470.23477	687.07379	809.79358	493.14590	790.55121	758.73688	501.17267	656.00238	1191.96484	11.30456	653.86176	1122.04724	-10.25840	685.35248	1060.79736	70.82890	748.11188	1177.64429	-0.74748	789.33081	1234.94995	32.99697	843.45996	1188.74780	19.84702	839.37738	1300.17432	-2.08322
11905	47.61600	618.79816	1417.54639	251.29399	675.78571	1361.79248	406.41846	660.22107	1373.65112	87.24886	758.23755	1287.80518	239.55389	670.43524	1157.76831	481.83240	662.51147	1069.75317	505.25339	618.14380	1033.36743	434.11462	722.47284	897.24152	496.68985	753.17096	834.32990	470.36511	686.98737	809.77252	493.29401	790.45697	758.70557	501.33826	655.88458	1192.00183	11.38405	653.80597	1122.05200	-10.16387	685.52869	1060.83972	70.91907	747.90955	1177.86121	-0.69969	788.98828	1235.27881	33.00560	843.24457	1189.20227	19.93853	838.84314	1300.60913	-2.13091
11906	47.62000	618.65771	1417.53149	251.37645	675.70630	1361.79333	406.45877	659.91547	1373.67725	87.33765	758.10364	1287.89014	239.59036	670.37823	1157.77136	481.89465	662.47418	1069.75317	505.32651	618.11169	1033.35999	434.17661	722.40277	897.21375	496.81021	753.09766	834.29529	470.49954	686.89996	809.75354	493.44098	790.35956	758.66852	501.51413	655.77295	1192.03308	11.47961	653.75067	1122.05212	-10.04679	685.70514	1060.88855	71.01740	747.70642	1178.08691	-0.64037	788.63965	1235.60852	33.00725	843.03101	1189.66187	20.01896	838.30554	1301.03491	-2.17392
11907	47.62400	618.51678	1417.51904	251.45465	675.62665	1361.79089	406.49533	659.60443	1373.70129	87.42989	757.97205	1287.97327	239.62706	670.33325	1157.77637	481.95016	662.43585	1069.75940	505.39093	618.07678	1033.35583	434.24146	722.34027	897.18500	496.92651	753.01996	834.25183	470.63382	686.81561	809.73462	493.58304	790.26263	758.63190	501.69141	655.65564	1192.05786	11.58027	653.69629	1122.04761	-9.91762	685.89777	1060.93054	71.12507	747.50354	1178.32373	-0.57084	788.30646	1235.94348	33.01747	842.81744	1190.13806	20.07097	837.77081	1301.46399	-2.22798
11908	47.62800	618.38080	1417.50671	251.52553	675.54504	1361.79675	406.53418	659.29987	1373.72229	87.51756	757.83429	1288.05627	239.65408	670.29669	1157.77710	481.98761	662.39771	1069.76746	505.45432	618.04663	1033.34875	434.29910	722.27997	897.15826	497.03421	752.93689	834.20728	470.76428	686.73267	809.72003	493.71649	790.16431	758.59265	501.86478	655.53815	1192.07434	11.67903	653.64276	1122.04004	-9.78662	686.07977	1060.96643	71.25317	747.29584	1178.55798	-0.51018	787.97040	1236.28784	33.01278	842.59827	1190.60840	20.09872	837.22101	1301.90759	-2.27018
11909	47.63200	618.24854	1417.49377	251.58263	675.46460	1361.80396	406.56680	659.00922	1373.73853	87.59610	757.70184	1288.14294	239.67181	670.25244	1157.78308	482.02377	662.36658	1069.77698	505.51361	618.02148	1033.34009	434.34442	722.21484	897.13544	497.13425	752.85535	834.16571	470.89212	686.64990	809.71021	493.85229	790.06958	758.55298	502.03143	655.42694	1192.08386	11.77681	653.59033	1122.02197	-9.65703	686.25879	1060.99390	71.38502	747.08221	1178.77673	-0.45565	787.61749	1236.62451	32.99051	842.36664	1191.08105	20.10953	836.64850	1302.34985	-2.29731
11910	47.63600	618.11829	1417.48315	251.63734	675.37909	1361.81067	406.60245	658.72632	1373.74658	87.67907	757.57629	1288.23523	239.69279	670.21167	1157.79370	482.05707	662.34399	1069.78918	505.56546	618.00061	1033.33057	434.38632	722.15497	897.11224	497.23547	752.77588	834.12085	471.01239	686.56799	809.70465	493.98044	789.97589	758.51062	502.19284	655.31506	1192.07959	11.87860	653.53497	1121.99475	-9.52049	686.45239	1061.02686	71.52170	746.86359	1178.98291	-0.39615	787.26282	1236.95190	32.97790	842.13684	1191.56531	20.11232	836.08899	1302.77783	-2.32883
11911	47.64000	617.98352	1417.46777	251.69197	675.28131	1361.82544	406.64774	658.44122	1373.73987	87.76540	757.59570	1288.16479	239.67747	670.17883	1157.80249	482.08694	662.32410	1069.79736	505.61398	617.98511	1033.31775	434.43839	722.09692	897.08820	497.33823	752.69440	834.07532	471.14194	686.48224	809.69366	494.10910	789.88019	758.46790	502.35068	655.20154	1192.06299	11.98501	653.47400	1121.97766	-9.38659	686.67145	1061.05688	71.66106	746.64520	1179.19250	-0.33989	786.89313	1237.27771	32.97996	841.89606	1192.05627	20.11806	835.52826	1303.19763	-2.36102
11912	47.64400	617.84528	1417.44922	251.74734	675.18341	1361.83118	406.69000	658.15576	1373.73022	87.85260	757.78699	1287.87781	239.61226	670.14600	1157.80396	482.11700	662.30463	1069.80273	505.66232	617.96454	1033.30249	434.48856	722.03314	897.05920	497.44528	752.61353	834.02539	471.27594	686.39624	809.67560	494.23264	789.77789	758.42560	502.51050	655.09155	1192.03589	12.10541	653.42126	1121.95471	-9.25221	686.88165	1061.08350	71.80132	746.42865	1179.40588	-0.27248	786.50360	1237.60657	32.99753	841.64014	1192.52588	20.15895	834.94141	1303.62329	-2.36672
11913	47.64800	617.70447	1417.43237	251.80388	675.07660	1361.83459	406.72525	657.88312	1373.71179	87.93333	757.76123	1287.83667	239.61580	670.11212	1157.80652	482.14465	662.28625	1069.81067	505.70554	617.94458	1033.29419	434.53201	721.96973	897.02435	497.54837	752.53436	833.96906	471.40945	686.30627	809.65411	494.36163	789.67297	758.37256	502.67105	654.98425	1191.99915	12.22418	653.36969	1121.92188	-9.12447	687.08179	1061.09363	71.94265	746.19995	1179.60938	-0.18727	786.12170	1237.92395	33.02736	841.38086	1192.98157	20.24010	834.34399	1304.05469	-2.36917
